<?xml version="1.0" encoding="utf-8"?>
<!-- Generator: Adobe Illustrator 19.2.0, SVG Export Plug-In . SVG Version: 6.00 Build 0)  -->
<svg version="1.1" id="Layer_1" xmlns="http://www.w3.org/2000/svg" xmlns:xlink="http://www.w3.org/1999/xlink" x="0px" y="0px"
	 viewBox="0 0 88.2 22.6" style="enable-background:new 0 0 88.2 22.6;" xml:space="preserve">
<style type="text/css">
	.st0{fill:#FFFFFF;}
	.st1{fill:#F15C22;}
	.st2{fill:#000017;}
	.st3{fill:#4E84C4;}
</style>
<rect y="3.7" class="st0" width="44.2" height="15.5"/>
<g>
	<g>
		<g>
			<path class="st0" d="M62.6,7.2c0,1.6,0,3.2,0,4.8c0,1.2,0.4,1.7,1.3,1.7c0.6,0,1.4-0.3,1.4-1.7V7.2h2.1v5c0,2-1.4,3.1-3.4,3.1
				c-2,0-3.4-0.9-3.4-3.1c0-1.9,0-3.4,0-5C60.6,7.2,62.6,7.2,62.6,7.2z"/>
			<path class="st0" d="M69.8,13.3c0.5,0.1,1.3,0.3,1.8,0.3c0.6,0,1.3-0.1,1.3-0.9c0-0.7-0.9-0.8-1.9-1.1c-0.9-0.3-1.9-0.8-1.9-2.3
				c0-1.7,1.7-2.5,3.2-2.5c0.9,0,1.7,0.2,2.5,0.5l-0.6,1.5c-0.5-0.2-1.2-0.3-1.7-0.3c-1,0-1.4,0.4-1.4,0.9c0,0.3,0.2,0.6,1.1,0.8
				c2,0.5,2.6,1.3,2.6,2.4c0,2-1.6,2.7-3.3,2.7c-0.8,0-1.7-0.2-2.5-0.4L69.8,13.3z"/>
			<path class="st0" d="M77.1,7.2h2.1l-0.1,7.9h-2V7.2z"/>
			<path class="st0" d="M87.5,9c-0.5-0.3-1.2-0.4-1.6-0.4c-1.5,0-2.6,1-2.6,2.5c0,1.4,0.9,2.6,2.4,2.6c0.8,0,1.1-0.2,1.8-0.4
				l0.6,1.5c-0.6,0.3-1.5,0.6-2.6,0.6c-2.7,0-4.3-1.7-4.3-4.3c0-2.5,1.7-4.1,4.5-4.1c1.1,0,2,0.2,2.5,0.6L87.5,9z"/>
		</g>
		<path class="st0" d="M56.5,7.2c-0.9,0-1.8,0.1-2.3,1c0,0-0.4-1-2-1c-0.8,0-1.4,0.2-1.9,0.8c0-0.2,0-0.5,0-0.8h-2v8.1h2V9.9
			c0,0,0,0,0-0.3c0.2-0.3,0.6-0.5,0.9-0.5c0.4,0,1,0.2,1,0.8v5.4h2.1V9.9c0-0.6,0.7-0.8,1.1-0.8c0.4,0,1,0.2,1,0.8v5.4h2.1V8.8
			C58.6,7.9,57.5,7.2,56.5,7.2z"/>
		<g>
			<path class="st0" d="M56.1,4.6c-0.9-0.2-1.7-0.3-2.6-0.3c-0.9,0-1.8,0.1-2.7,0.3c-0.9,0.2-1.7,0.5-2.5,0.9V4.1
				c0.8-0.5,1.6-0.8,2.5-1.1s1.7-0.4,2.6-0.4c0.4,0,0.9,0,1.3,0.1c0.5,0.1,0.9,0.2,1.4,0.3s0.9,0.3,1.3,0.5c0.4,0.2,0.8,0.4,1.2,0.7
				v1.3C57.8,5.1,56.9,4.8,56.1,4.6z"/>
		</g>
		<g>
			<path class="st0" d="M55.5,1.5c-0.7-0.2-1.4-0.2-2.1-0.2c-0.7,0-1.4,0.1-2.1,0.2c-0.7,0.2-1.4,0.4-2,0.7v-1
				c0.6-0.4,1.3-0.7,2-0.9C52,0.1,52.7,0,53.4,0c0.3,0,0.7,0,1.1,0.1c0.4,0,0.7,0.1,1.1,0.2c0.4,0.1,0.7,0.2,1.1,0.4
				C57,0.8,57.4,1,57.6,1.2v1.1C56.9,1.9,56.2,1.7,55.5,1.5z"/>
		</g>
		<g>
			<path class="st0" d="M58.6,17v1.3c-0.4,0.2-0.7,0.5-1.2,0.7c-0.4,0.2-0.9,0.3-1.3,0.5c-0.5,0.1-0.9,0.2-1.4,0.3
				c-0.5,0.1-0.9,0.1-1.3,0.1c-0.9,0-1.8-0.1-2.6-0.4c-0.9-0.3-1.7-0.6-2.5-1.1V17c0.8,0.4,1.7,0.7,2.5,0.9c0.9,0.2,1.8,0.3,2.7,0.3
				s1.8-0.1,2.6-0.3S57.8,17.4,58.6,17z"/>
		</g>
		<g>
			<path class="st0" d="M57.5,20.3v1.1c-0.3,0.2-0.6,0.4-0.9,0.5c-0.3,0.2-0.7,0.3-1.1,0.4c-0.4,0.1-0.7,0.2-1.1,0.2
				c-0.4,0-0.7,0.1-1.1,0.1c-0.7,0-1.4-0.1-2.1-0.3c-0.7-0.2-1.3-0.5-2-0.9v-1c0.6,0.3,1.3,0.6,2,0.7c0.7,0.2,1.4,0.2,2.1,0.2
				c0.7,0,1.4-0.1,2.1-0.2C56.2,20.8,56.9,20.6,57.5,20.3z"/>
		</g>
	</g>
	<rect x="0.6" y="4.3" class="st1" width="14.4" height="14.4"/>
	<rect x="15" y="4.3" class="st2" width="14.4" height="14.4"/>
	<rect x="29.3" y="4.3" class="st3" width="14.4" height="14.4"/>
	<path class="st0" d="M9.3,15.2V11c0-0.6-0.1-1.1-0.4-1.4C8.7,9.3,8.3,9.2,7.8,9.2C7.5,9.2,7.3,9.3,7,9.4C6.7,9.5,6.4,9.7,6.3,9.9
		v5.3H4.6V7.8h1.2l0.3,0.7C6.6,8,7.3,7.7,8.2,7.7S9.8,8,10.3,8.5s0.8,1.3,0.8,2.2v4.5H9.3z"/>
	<path class="st0" d="M21.6,9.2c0.8,0,1.4,0.2,1.7,0.5c0.3,0.4,0.5,1,0.5,1.8s-0.2,1.4-0.5,1.8c-0.3,0.4-0.9,0.6-1.7,0.6
		c-0.4,0-0.8-0.1-1.1-0.4V9.7C20.9,9.3,21.2,9.2,21.6,9.2z M22,15.4c1.1,0,2-0.3,2.7-1s1-1.6,1-2.8c0-2.6-1.2-3.9-3.5-3.9
		c-0.6,0-1.2,0.2-1.6,0.6V7.8h-1.7v10h1.7V15C21,15.3,21.5,15.4,22,15.4z"/>
	<path class="st0" d="M38.4,9.5c-0.3-0.2-0.6-0.3-1-0.3s-0.8,0.2-1.1,0.5c-0.3,0.4-0.5,0.8-0.5,1.3v4.2h-1.7V7.8h1.7v0.7
		c0.5-0.6,1.1-0.8,1.9-0.8c0.6,0,1,0.1,1.3,0.3L38.4,9.5z"/>
	<path class="st0" d="M43.9,18.9l-43.6,0V4l43.6,0V18.9z M0.6,18.5h43V4.3h-43C0.6,4.3,0.6,18.5,0.6,18.5z"/>
</g>
</svg>
